<svg width="67" height="166" viewBox="0 0 67 166" fill="none" xmlns="http://www.w3.org/2000/svg">
<path d="M23.58 84.45C22.58 86.11 21.43 87.62 20.13 88.98C20.05 89.1 19.94 89.11 19.8 89.01H19.77C19.67 88.93 19.65 88.82 19.71 88.68C21.25 86.4 22.69 83.52 24.03 80.04C24.37 79.12 24.69 78.07 24.99 76.89C25.31 75.71 25.51 74.71 25.59 73.89C25.63 73.71 25.73 73.65 25.89 73.71C27.73 74.39 28.65 74.84 28.65 75.06C28.65 75.16 28.55 75.24 28.35 75.3L27.78 75.48C27 77.74 26.11 79.83 25.11 81.75C25.79 82.29 26.13 82.68 26.13 82.92C26.13 83.02 26.04 83.12 25.86 83.22L25.44 83.4V93.45C25.48 95.95 25.56 98.24 25.68 100.32C25.68 100.44 25.64 100.54 25.56 100.62C25.36 100.8 25.11 100.96 24.81 101.1C24.51 101.24 24.22 101.31 23.94 101.31C23.76 101.31 23.6 101.25 23.46 101.13C23.32 101.01 23.25 100.87 23.25 100.71C23.33 99.53 23.4 98.39 23.46 97.29C23.52 96.17 23.56 94.71 23.58 92.91V84.45ZM42.48 79.92C42.54 79.84 42.63 79.72 42.75 79.56C42.87 79.38 42.97 79.25 43.05 79.17C43.15 79.07 43.24 79.02 43.32 79.02C43.48 79.02 43.87 79.29 44.49 79.83C45.11 80.37 45.49 80.78 45.63 81.06C45.65 81.16 45.65 81.26 45.63 81.36C45.51 81.58 45.27 81.69 44.91 81.69H37.65V89.01H42.63L43.23 88.11C43.29 88.03 43.38 87.91 43.5 87.75C43.62 87.57 43.72 87.44 43.8 87.36C43.9 87.26 43.99 87.21 44.07 87.21C44.23 87.21 44.63 87.49 45.27 88.05C45.91 88.59 46.3 89 46.44 89.28C46.46 89.38 46.46 89.48 46.44 89.58C46.32 89.8 46.08 89.91 45.72 89.91H37.65V93.48C37.69 95.96 37.77 98.22 37.89 100.26C37.89 100.36 37.86 100.45 37.8 100.53C37.64 100.75 37.4 100.93 37.08 101.07C36.76 101.21 36.44 101.28 36.12 101.28C35.92 101.28 35.75 101.22 35.61 101.1C35.47 100.98 35.4 100.84 35.4 100.68C35.48 99.64 35.54 98.61 35.58 97.59C35.64 96.57 35.68 95.28 35.7 93.72V89.91H31.89C30.61 89.93 29.18 90.06 27.6 90.3H27.51C27.43 90.3 27.36 90.25 27.3 90.15L26.79 89.07C26.77 89.05 26.76 89.01 26.76 88.95C26.76 88.85 26.83 88.8 26.97 88.8C28.07 88.9 29.29 88.97 30.63 89.01H35.7V81.69H30.96C29.84 84.07 28.62 85.96 27.3 87.36C27.2 87.5 27.09 87.51 26.97 87.39C26.85 87.27 26.83 87.16 26.91 87.06C27.77 85.48 28.54 83.7 29.22 81.72C29.52 80.8 29.79 79.74 30.03 78.54C30.27 77.34 30.4 76.32 30.42 75.48C30.42 75.4 30.45 75.35 30.51 75.33C30.57 75.29 30.64 75.28 30.72 75.3C31.74 75.62 32.45 75.88 32.85 76.08C33.25 76.28 33.45 76.44 33.45 76.56C33.45 76.64 33.36 76.71 33.18 76.77L32.64 76.98C32.24 78.44 31.8 79.72 31.32 80.82H35.7V80.19C35.7 78.01 35.59 76.06 35.37 74.34V74.28C35.37 74.12 35.46 74.07 35.64 74.13C37.48 74.67 38.4 75.07 38.4 75.33C38.4 75.43 38.32 75.53 38.16 75.63L37.65 75.96V80.82H41.85L42.48 79.92ZM23.94 111.83C23.94 109.65 23.83 107.7 23.61 105.98V105.92C23.61 105.76 23.7 105.71 23.88 105.77C24.88 106.07 25.57 106.31 25.95 106.49C26.33 106.67 26.52 106.83 26.52 106.97C26.52 107.09 26.43 107.2 26.25 107.3L25.71 107.63V125.42C25.75 127.9 25.83 130.2 25.95 132.32C25.95 132.42 25.92 132.51 25.86 132.59C25.7 132.79 25.47 132.96 25.17 133.1C24.87 133.26 24.57 133.34 24.27 133.34C24.11 133.34 23.96 133.28 23.82 133.16C23.68 133.04 23.61 132.9 23.61 132.74C23.69 131.56 23.76 130.42 23.82 129.32C23.88 128.2 23.92 126.74 23.94 124.94V111.83ZM42.21 111.5C42.27 111.42 42.35 111.3 42.45 111.14C42.57 110.98 42.67 110.86 42.75 110.78C42.83 110.7 42.91 110.66 42.99 110.66C43.17 110.66 43.54 110.91 44.1 111.41C44.66 111.89 45.01 112.27 45.15 112.55C45.17 112.65 45.16 112.75 45.12 112.85C45 113.07 44.77 113.18 44.43 113.18H37.8V115.85H42.93L43.5 115.01C43.56 114.93 43.64 114.81 43.74 114.65C43.86 114.49 43.96 114.37 44.04 114.29C44.12 114.21 44.2 114.17 44.28 114.17C44.44 114.17 44.82 114.42 45.42 114.92C46.02 115.42 46.39 115.81 46.53 116.09C46.55 116.19 46.54 116.29 46.5 116.39C46.38 116.61 46.16 116.72 45.84 116.72H33.09C31.81 116.74 30.38 116.87 28.8 117.11H28.71C28.63 117.11 28.56 117.06 28.5 116.96L27.96 115.91C27.94 115.89 27.93 115.85 27.93 115.79C27.93 115.69 28 115.64 28.14 115.64C29.24 115.74 30.46 115.81 31.8 115.85H35.97V113.18H34.08C32.94 113.22 31.85 113.35 30.81 113.57H30.72C30.64 113.57 30.57 113.52 30.51 113.42L29.97 112.37C29.95 112.35 29.94 112.31 29.94 112.25C29.94 112.15 30.01 112.1 30.15 112.1C31.25 112.2 32.47 112.27 33.81 112.31H35.97V109.85H33.66C32.42 109.87 31.05 110 29.55 110.24H29.46C29.38 110.24 29.31 110.19 29.25 110.09L28.74 109.01C28.72 108.99 28.71 108.95 28.71 108.89C28.71 108.79 28.78 108.74 28.92 108.74C30.02 108.84 31.24 108.91 32.58 108.95H35.97C35.97 108.01 35.92 107.06 35.82 106.1C35.82 105.9 35.91 105.83 36.09 105.89C37.71 106.37 38.52 106.75 38.52 107.03C38.52 107.13 38.44 107.23 38.28 107.33L37.8 107.63V108.95H42.42L42.99 108.14C43.05 108.06 43.13 107.94 43.23 107.78C43.35 107.62 43.45 107.5 43.53 107.42C43.61 107.34 43.69 107.3 43.77 107.3C43.95 107.3 44.33 107.55 44.91 108.05C45.51 108.55 45.88 108.94 46.02 109.22C46.04 109.32 46.04 109.42 46.02 109.52C45.9 109.74 45.67 109.85 45.33 109.85H37.8V112.31H41.67L42.21 111.5ZM26.31 110.63C26.25 110.47 26.27 110.37 26.37 110.33C26.51 110.27 26.62 110.28 26.7 110.36C27.58 110.94 28.22 111.55 28.62 112.19C29.04 112.81 29.25 113.39 29.25 113.93C29.25 114.31 29.16 114.62 28.98 114.86C28.82 115.08 28.61 115.19 28.35 115.19C28.11 115.19 27.9 115.11 27.72 114.95C27.64 114.87 27.6 114.77 27.6 114.65C27.56 114.03 27.41 113.35 27.15 112.61C26.91 111.85 26.63 111.19 26.31 110.63ZM21.63 111.47C21.63 111.31 21.71 111.23 21.87 111.23H21.93C22.05 111.23 22.13 111.31 22.17 111.47C22.39 112.51 22.5 113.43 22.5 114.23C22.5 115.05 22.42 115.79 22.26 116.45C22.1 117.09 21.89 117.6 21.63 117.98C21.47 118.22 21.26 118.42 21 118.58C20.74 118.72 20.5 118.79 20.28 118.79C20.02 118.79 19.82 118.7 19.68 118.52C19.56 118.34 19.5 118.15 19.5 117.95C19.5 117.59 19.67 117.22 20.01 116.84C20.43 116.34 20.8 115.58 21.12 114.56C21.44 113.52 21.61 112.49 21.63 111.47ZM32.58 128.93C32.6 129.21 32.61 129.58 32.61 130.04C32.63 130.88 32.67 131.63 32.73 132.29C32.73 132.41 32.7 132.51 32.64 132.59C32.52 132.77 32.3 132.93 31.98 133.07C31.68 133.21 31.37 133.28 31.05 133.28C30.91 133.28 30.78 133.22 30.66 133.1C30.56 132.98 30.51 132.84 30.51 132.68C30.63 130.82 30.71 128.96 30.75 127.1V124.01C30.75 121.63 30.64 119.7 30.42 118.22V118.16C30.42 118.08 30.44 118.03 30.48 118.01C30.54 117.97 30.61 117.97 30.69 118.01L32.7 119H41.34L41.76 118.4C41.82 118.32 41.91 118.2 42.03 118.04C42.15 117.86 42.27 117.77 42.39 117.77C42.57 117.77 42.95 117.99 43.53 118.43C44.13 118.85 44.51 119.19 44.67 119.45C44.73 119.57 44.7 119.67 44.58 119.75C44.26 119.99 43.9 120.15 43.5 120.23V130.55C43.5 131.11 43.44 131.56 43.32 131.9C43.22 132.24 42.99 132.52 42.63 132.74C42.29 132.98 41.76 133.15 41.04 133.25H40.98C40.88 133.25 40.81 133.18 40.77 133.04C40.71 132.48 40.55 132.09 40.29 131.87C39.93 131.55 39.36 131.32 38.58 131.18C38.42 131.14 38.34 131.06 38.34 130.94V130.91C38.34 130.73 38.42 130.66 38.58 130.7C39.78 130.82 40.62 130.88 41.1 130.88C41.3 130.88 41.44 130.84 41.52 130.76C41.6 130.66 41.64 130.5 41.64 130.28V127.1H32.58V128.93ZM41.64 122.54V119.84H32.58V122.54H41.64ZM32.58 123.41V126.2H41.64V123.41H32.58ZM29.7 140.98C29.76 140.9 29.84 140.78 29.94 140.62C30.06 140.46 30.16 140.34 30.24 140.26C30.32 140.18 30.4 140.14 30.48 140.14C30.64 140.14 31 140.39 31.56 140.89C32.12 141.39 32.47 141.78 32.61 142.06C32.63 142.1 32.64 142.15 32.64 142.21C32.64 142.35 32.56 142.47 32.4 142.57C32.26 142.65 32.09 142.69 31.89 142.69H27.09V146.44H29.76L30.36 145.57C30.44 145.47 30.52 145.35 30.6 145.21C30.7 145.07 30.8 144.95 30.9 144.85C31 144.75 31.09 144.7 31.17 144.7C31.33 144.7 31.7 144.96 32.28 145.48C32.86 146 33.22 146.4 33.36 146.68C33.38 146.72 33.39 146.77 33.39 146.83C33.39 146.97 33.31 147.09 33.15 147.19C33.01 147.27 32.84 147.31 32.64 147.31H24.72C23.44 147.33 22.01 147.46 20.43 147.7H20.34C20.26 147.7 20.19 147.65 20.13 147.55L19.59 146.5C19.57 146.48 19.56 146.44 19.56 146.38C19.56 146.28 19.63 146.23 19.77 146.23C20.87 146.33 22.08 146.4 23.4 146.44H25.29V142.69H23.7C22.84 142.71 21.99 142.83 21.15 143.05C20.99 143.09 20.89 143.05 20.85 142.93L20.31 141.88L20.28 141.76C20.28 141.66 20.36 141.61 20.52 141.61C21.44 141.71 22.48 141.78 23.64 141.82H25.29C25.29 140.44 25.21 139.14 25.05 137.92C25.05 137.72 25.15 137.65 25.35 137.71C26.97 138.21 27.78 138.59 27.78 138.85C27.78 138.95 27.7 139.05 27.54 139.15L27.09 139.45V141.82H29.13L29.7 140.98ZM42.93 139.18C42.99 139.1 43.06 139 43.14 138.88C43.22 138.76 43.29 138.67 43.35 138.61C43.41 138.55 43.48 138.52 43.56 138.52C43.74 138.52 44.12 138.76 44.7 139.24C45.28 139.7 45.64 140.07 45.78 140.35C45.84 140.43 45.82 140.52 45.72 140.62C45.42 140.88 45.05 141.04 44.61 141.1V145.45C44.61 145.99 44.54 146.43 44.4 146.77C44.28 147.11 44.01 147.4 43.59 147.64C43.19 147.86 42.59 148.02 41.79 148.12H41.73C41.63 148.12 41.56 148.05 41.52 147.91C41.38 147.39 41.19 147.02 40.95 146.8C40.35 146.46 39.58 146.23 38.64 146.11C38.48 146.07 38.4 145.98 38.4 145.84C38.4 145.66 38.48 145.59 38.64 145.63C40.38 145.77 41.54 145.84 42.12 145.84C42.38 145.84 42.55 145.8 42.63 145.72C42.73 145.62 42.78 145.46 42.78 145.24V140.71H35.67V149.98H42.84L43.35 149.41C43.41 149.35 43.52 149.24 43.68 149.08C43.84 148.9 43.98 148.81 44.1 148.81C44.26 148.81 44.58 149.03 45.06 149.47C45.54 149.89 45.85 150.24 45.99 150.52C46.03 150.6 46 150.69 45.9 150.79C45.76 150.93 45.43 151.02 44.91 151.06C44.21 154.34 43.18 157.1 41.82 159.34C43.14 160.96 44.72 162.26 46.56 163.24C46.66 163.3 46.71 163.36 46.71 163.42C46.71 163.5 46.69 163.55 46.65 163.57C46.63 163.61 46.57 163.64 46.47 163.66C45.83 163.78 45.34 164.19 45 164.89C44.9 165.05 44.79 165.08 44.67 164.98C43.19 163.9 41.9 162.54 40.8 160.9C39.48 162.64 38 164.06 36.36 165.16C36.24 165.26 36.13 165.24 36.03 165.1L36 165.04C35.9 164.9 35.91 164.79 36.03 164.71C37.59 163.37 38.93 161.68 40.05 159.64C38.73 157.26 37.78 154.33 37.2 150.85H35.67V157.33C35.71 159.81 35.79 162.11 35.91 164.23C35.91 164.31 35.88 164.41 35.82 164.53C35.68 164.75 35.46 164.93 35.16 165.07C34.86 165.23 34.53 165.31 34.17 165.31C34.01 165.31 33.86 165.24 33.72 165.1C33.6 164.98 33.54 164.85 33.54 164.71C33.62 163.53 33.69 162.39 33.75 161.29C33.81 160.17 33.85 158.71 33.87 156.91V144.85C33.87 142.47 33.76 140.54 33.54 139.06V139C33.54 138.92 33.56 138.87 33.6 138.85C33.66 138.81 33.73 138.81 33.81 138.85L35.82 139.84H42.51L42.93 139.18ZM30.06 156.79C30.12 156.71 30.2 156.59 30.3 156.43C30.42 156.25 30.52 156.12 30.6 156.04C30.68 155.96 30.76 155.92 30.84 155.92C31 155.92 31.36 156.18 31.92 156.7C32.5 157.22 32.86 157.62 33 157.9C33.02 157.94 33.03 157.99 33.03 158.05C33.03 158.19 32.96 158.31 32.82 158.41C32.68 158.49 32.51 158.53 32.31 158.53H27.09V160.63C27.15 162.33 27.21 163.6 27.27 164.44C27.27 164.56 27.23 164.66 27.15 164.74C27.01 164.92 26.8 165.07 26.52 165.19C26.26 165.31 25.94 165.37 25.56 165.37C25.42 165.37 25.3 165.31 25.2 165.19C25.12 165.07 25.08 164.93 25.08 164.77C25.18 163.79 25.25 162.47 25.29 160.81V158.53H23.64C22.72 158.55 21.79 158.67 20.85 158.89C20.69 158.93 20.59 158.89 20.55 158.77L20.01 157.72C19.99 157.7 19.98 157.66 19.98 157.6C19.98 157.5 20.06 157.45 20.22 157.45C21.18 157.55 22.28 157.62 23.52 157.66H25.29V153.52H23.46C22.44 153.54 21.43 153.66 20.43 153.88C20.27 153.92 20.17 153.88 20.13 153.76L19.59 152.71C19.57 152.69 19.56 152.65 19.56 152.59C19.56 152.49 19.63 152.44 19.77 152.44C20.87 152.54 22.09 152.61 23.43 152.65H27.39C27.93 150.75 28.26 149.06 28.38 147.58C28.38 147.5 28.4 147.44 28.44 147.4C28.5 147.36 28.57 147.36 28.65 147.4C29.59 147.7 30.24 147.94 30.6 148.12C30.98 148.3 31.17 148.45 31.17 148.57C31.17 148.63 31.08 148.7 30.9 148.78L30.39 148.99C29.47 150.61 28.7 151.83 28.08 152.65H29.73L30.3 151.81C30.36 151.73 30.44 151.61 30.54 151.45C30.66 151.27 30.76 151.14 30.84 151.06C30.92 150.98 31 150.94 31.08 150.94C31.24 150.94 31.61 151.2 32.19 151.72C32.77 152.22 33.13 152.61 33.27 152.89C33.29 152.99 33.28 153.09 33.24 153.19C33.12 153.41 32.89 153.52 32.55 153.52H27.09V157.66H29.49L30.06 156.79ZM21.96 148C21.94 147.98 21.93 147.95 21.93 147.91C21.93 147.81 21.98 147.74 22.08 147.7C22.22 147.66 22.33 147.67 22.41 147.73C23.23 148.29 23.83 148.88 24.21 149.5C24.61 150.1 24.81 150.66 24.81 151.18C24.81 151.58 24.71 151.91 24.51 152.17C24.33 152.41 24.1 152.53 23.82 152.53C23.58 152.53 23.34 152.44 23.1 152.26C23.02 152.18 22.98 152.08 22.98 151.96C22.96 150.84 22.62 149.52 21.96 148ZM37.8 150.85C38.42 153.59 39.43 155.99 40.83 158.05C41.81 155.91 42.53 153.51 42.99 150.85H37.8Z" fill="#222222"/>
<path d="M33.2013 0.00011731L0 33.2014L33.2013 66.4027L66.4026 33.2014L33.2013 0.00011731Z" fill="black"/>
<path d="M28.5 23.87C28.6 23.71 28.71 23.7 28.83 23.84C29.35 24.28 29.98 24.87 30.72 25.61L30.93 25.82V25.85L31.47 24.62C31.83 23.76 32.13 22.8 32.37 21.74C32.63 20.66 32.79 19.69 32.85 18.83C32.87 18.65 32.97 18.59 33.15 18.65C34.99 19.19 35.91 19.59 35.91 19.85C35.91 19.95 35.81 20.03 35.61 20.09L35.04 20.33C34.6 21.87 33.99 23.38 33.21 24.86H43.14L43.59 24.2C43.65 24.12 43.72 24.02 43.8 23.9C43.9 23.78 43.98 23.69 44.04 23.63C44.12 23.57 44.2 23.54 44.28 23.54C44.46 23.54 44.81 23.77 45.33 24.23C45.87 24.67 46.21 25.03 46.35 25.31C46.41 25.39 46.39 25.48 46.29 25.58C46.13 25.74 45.77 25.87 45.21 25.97C45.01 31.05 44.65 35.24 44.13 38.54C43.61 41.84 42.96 43.93 42.18 44.81C41.4 45.73 40.31 46.21 38.91 46.25C38.75 46.25 38.67 46.17 38.67 46.01C38.63 45.45 38.44 45.05 38.1 44.81C37.9 44.65 37.52 44.49 36.96 44.33C36.42 44.17 35.85 44.04 35.25 43.94C35.09 43.9 35.01 43.81 35.01 43.67V43.58C35.01 43.5 35.03 43.44 35.07 43.4C35.13 43.36 35.2 43.35 35.28 43.37C36.06 43.47 36.87 43.56 37.71 43.64C38.57 43.72 39.15 43.76 39.45 43.76C39.77 43.76 40.02 43.73 40.2 43.67C40.38 43.59 40.58 43.46 40.8 43.28C41.42 42.7 41.95 40.84 42.39 37.7C42.85 34.56 43.2 30.56 43.44 25.7H41.55C40.89 29.8 39.71 33.44 38.01 36.62C36.33 39.8 33.98 42.47 30.96 44.63C30.82 44.73 30.71 44.72 30.63 44.6L30.6 44.57C30.5 44.45 30.52 44.34 30.66 44.24C33.16 41.92 35.14 39.18 36.6 36.02C38.06 32.86 39.02 29.42 39.48 25.7H37.32C36.62 28.44 35.54 30.96 34.08 33.26C32.62 35.54 30.83 37.48 28.71 39.08C28.57 39.18 28.46 39.17 28.38 39.05L28.35 39.02C28.27 38.9 28.28 38.79 28.38 38.69C30.12 37.01 31.58 35.04 32.76 32.78C33.96 30.52 34.81 28.16 35.31 25.7H32.73C31.61 27.72 30.2 29.42 28.5 30.8C28.38 30.9 28.26 30.89 28.14 30.77L28.11 30.74C28.01 30.64 28 30.53 28.08 30.41C29 29.33 29.92 27.87 30.84 26.03C30.7 26.21 30.48 26.3 30.18 26.3H26.61V33.08L30.48 31.7C30.5 31.68 30.54 31.67 30.6 31.67C30.7 31.67 30.77 31.72 30.81 31.82V31.85V31.94C30.81 32.02 30.77 32.09 30.69 32.15C28.93 33.13 27.57 33.87 26.61 34.37V38.39C26.65 40.87 26.73 43.17 26.85 45.29C26.85 45.39 26.82 45.48 26.76 45.56C26.6 45.76 26.36 45.93 26.04 46.07C25.74 46.23 25.44 46.31 25.14 46.31C24.96 46.31 24.8 46.25 24.66 46.13C24.54 46.01 24.48 45.87 24.48 45.71C24.62 43.69 24.71 41.46 24.75 39.02V35.36L21.48 37.04C21.42 37.28 21.29 37.49 21.09 37.67C21.07 37.69 21.03 37.7 20.97 37.7C20.89 37.7 20.83 37.65 20.79 37.55L19.89 35.51C19.83 35.33 19.87 35.23 20.01 35.21C21.11 34.93 22.69 34.43 24.75 33.71V26.3H22.47C21.81 28.3 21.08 29.9 20.28 31.1C20.24 31.16 20.19 31.2 20.13 31.22C20.07 31.22 20.01 31.2 19.95 31.16L19.89 31.13C19.77 31.07 19.74 30.96 19.8 30.8C20.24 29.56 20.6 28.27 20.88 26.93C21.06 26.15 21.2 25.27 21.3 24.29C21.42 23.29 21.48 22.37 21.48 21.53V20.75V20.69C21.48 20.63 21.5 20.59 21.54 20.57C21.6 20.53 21.67 20.52 21.75 20.54C22.71 20.74 23.37 20.9 23.73 21.02C24.11 21.14 24.3 21.26 24.3 21.38C24.3 21.46 24.22 21.55 24.06 21.65L23.55 21.92C23.23 23.48 22.95 24.64 22.71 25.4H24.75V24.8C24.75 22.62 24.64 20.67 24.42 18.95V18.89C24.42 18.73 24.51 18.68 24.69 18.74C25.67 19.04 26.35 19.29 26.73 19.49C27.13 19.67 27.33 19.83 27.33 19.97C27.33 20.07 27.25 20.17 27.09 20.27L26.61 20.6V25.4H27.36L28.5 23.87Z" fill="white"/>
</svg>
