<svg width="237" height="33" viewBox="0 0 237 33" fill="none" xmlns="http://www.w3.org/2000/svg">
<path d="M47.2098 4.6001L50.4298 4.78003C50.5598 4.78003 50.9298 4.81006 50.9298 5.06006C50.9298 5.31006 50.6298 5.40999 50.2998 5.48999V6.91992H60.1498V9.62988H37.2998V6.91992H47.1998V4.61011L47.2098 4.6001ZM45.5298 20.6101C45.7298 20.7401 45.9098 20.84 45.9098 21.04C45.9098 21.32 45.4898 21.32 45.2298 21.29C44.7198 22.12 43.1198 24.73 40.2798 27.04C39.1198 26.11 38.6998 25.76 37.5198 25.26C39.8498 23.35 41.4598 21.5901 42.8198 19.1001L45.5298 20.6101ZM50.2998 24.8101C50.2998 26.8901 49.8498 27.7699 45.4798 27.6199C45.3798 26.6699 44.8998 25.4099 44.3198 24.4299C45.2298 24.5499 45.7498 24.6101 46.1998 24.6101C47.0298 24.6101 47.1998 24.33 47.1998 23.76V18.6299H40.2898V10.99H57.1598V18.6299H50.2998V24.8101ZM43.3898 13.52V16.0801H54.1198V13.52H43.3898ZM54.4198 19.25C55.9598 20.53 58.1398 22.87 59.3998 24.98C58.0898 25.81 57.9398 25.91 56.6398 26.99C55.6098 25.05 53.7198 22.4701 51.8598 20.8601L54.4198 19.25Z" fill="white"/>
<path d="M63.5699 10.5803C64.2699 10.9603 66.0599 12.0103 67.3099 13.0903C66.5299 14.1203 66.1499 14.7201 65.5999 15.6301C64.5999 14.7001 63.0099 13.6403 61.8799 13.0403L63.5599 10.5803H63.5699ZM61.9099 25.4602C63.5199 23.4202 64.8499 21.1903 66.5299 17.3203C66.8599 17.8003 67.5899 18.8003 68.5699 19.5103C67.8699 21.1203 66.0799 24.5903 64.6699 26.5503C64.7199 26.6803 64.8499 27.0501 64.8499 27.1301C64.8499 27.3101 64.7799 27.4602 64.6299 27.4602C64.4499 27.4602 64.2799 27.3103 64.1999 27.2603L61.9099 25.4802V25.4602ZM65.8099 4.32031C67.0599 4.92031 68.9199 6.38035 69.3999 6.86035C68.7699 7.59035 68.1699 8.39022 67.6199 9.22022C66.5099 8.19022 65.3599 7.33032 64.0499 6.58032L65.8099 4.32031ZM84.4799 15.5803C84.8299 15.7303 84.9599 15.7802 84.9599 15.9302C84.9599 16.2102 84.6599 16.2303 84.1299 16.3103C83.3799 17.7903 82.2699 19.9803 81.8399 20.7803L84.2499 20.3003C84.7799 21.8803 85.4599 25.2503 85.5299 27.0103C84.7299 27.0603 83.9899 27.1903 82.9699 27.5103C82.9199 26.8303 82.8699 26.3303 82.7499 25.5503C81.9399 25.7303 78.4799 26.3502 77.7699 26.4802C77.5899 26.9102 77.4699 27.1104 77.2399 27.1104C77.0099 27.1104 76.9099 26.8603 76.8399 26.5603L76.0299 23.7903C76.4099 23.7703 76.5099 23.7702 77.5099 23.6902C78.1099 22.6802 78.1899 22.5601 79.1499 20.8801C79.0999 20.8001 77.6599 18.7902 75.7999 16.9302L76.4299 16.0002C76.2799 16.0702 76.1499 16.1003 75.8299 16.1003C74.8499 18.1903 73.7399 20.3201 73.5699 20.6501L75.4299 20.3701C75.7299 21.7301 76.3299 26.3302 76.2299 27.4602C75.3799 27.4302 74.5199 27.6401 73.7699 27.8901C73.7899 26.9901 73.7699 26.4803 73.7399 26.0303C72.4099 26.2803 71.0799 26.5102 68.6899 26.9102C68.4899 27.4602 68.4099 27.6104 68.1599 27.6104C68.0099 27.6104 67.9299 27.4303 67.8799 27.2603L67.1799 24.0703C68.1399 24.0703 68.5099 24.0703 68.9699 24.0203C69.3499 23.3903 69.4999 23.0902 70.8999 20.5002C70.7799 20.3202 68.5699 17.7102 67.1599 16.4802L68.8699 14.1702C69.1199 14.4002 69.2699 14.5202 69.7199 14.9702C70.2499 13.7102 70.5799 12.7103 70.9499 11.3003H68.2899V8.64014H72.7199C71.4899 6.71014 71.0599 6.20032 70.7299 5.83032L73.2899 4.32031C74.1199 5.38031 75.0699 6.93014 75.5499 7.89014C75.3499 8.01014 74.4399 8.54014 74.2399 8.64014H77.1099C77.6899 7.89014 79.1499 5.65012 79.7199 4.37012L82.4099 5.65015C82.7099 5.80015 82.8599 5.88032 82.8599 6.08032C82.8599 6.43032 82.4599 6.41013 82.0099 6.38013C80.9799 8.04013 80.8499 8.21014 80.5499 8.64014H85.1499V11.3003H79.9699L82.0099 12.1602C82.3899 12.3102 82.4899 12.3903 82.4899 12.5403C82.4899 12.7903 82.2899 12.8202 81.7099 12.9702C81.2599 14.2302 80.0799 16.6901 79.7299 17.3901C79.8599 17.5401 80.0099 17.7201 80.5099 18.3701C80.6899 18.0401 81.5099 16.4603 82.1899 14.6003L84.4799 15.5803ZM75.9099 15.3303C76.3599 15.5303 76.4899 15.6303 76.5599 15.8103L77.3199 14.6802C77.5999 14.9302 77.7499 15.0803 77.9699 15.3103C78.3199 14.6103 79.1199 12.7503 79.5199 11.3103H71.7499L73.6599 11.9902C73.8599 12.0602 74.0599 12.1701 74.0599 12.3901C74.0599 12.6701 73.8299 12.7203 73.2999 12.7703C72.8999 13.8203 72.4499 15.0101 71.4699 16.8901C71.6999 17.1901 71.9199 17.4401 72.2699 17.8701C73.2699 15.6801 73.3999 15.4303 73.8299 14.3503L75.8899 15.3303H75.9099ZM73.5499 23.6201C73.4299 22.5101 73.3199 21.8903 73.2199 21.3303C72.6199 22.4603 72.3699 22.8903 71.8099 23.7903C72.5399 23.7203 72.9899 23.6704 73.5399 23.6104L73.5499 23.6201ZM82.2899 23.1401C82.1099 22.4401 81.9099 21.5302 81.7399 20.9302C81.1599 22.0402 80.9599 22.3601 80.3599 23.3701L82.2899 23.1401Z" fill="white"/>
<path d="M100.14 27.21C99.8399 27.21 94.9399 27.21 92.1199 24.75C91.0399 26.36 89.9599 27.3399 89.3599 27.8899C88.4799 26.9899 87.7799 26.58 86.9199 26.23C87.7499 25.55 88.9599 24.47 90.1399 22.51C88.7299 20.42 88.2499 18.5199 87.9799 17.1799L90.4599 16.5501C90.8399 18.2601 91.1699 19.0399 91.4399 19.6699C92.0399 17.7299 92.1199 16.3301 92.1699 15.5501H90.5099C90.0299 16.1801 89.8599 16.3799 89.6299 16.6799C88.9799 16.0799 88.1699 15.7001 86.9899 15.3501C88.5499 13.3601 89.6299 11.2999 90.6899 8.86987H87.5499V5.94995H93.7099L94.8899 7.37988C93.6599 10.4199 92.4499 12.5101 92.2499 12.8101H95.0899C95.0399 14.2701 94.9399 18.8101 93.3799 22.3601C95.4899 24.3701 97.4799 24.52 100.69 24.52C103.73 24.52 108.83 24.52 111.22 24.04C110.34 25.4 110.14 26.91 110.11 27.21H100.13H100.14ZM100.19 15.3999H96.0199V13.3201H100.19V11.8899H94.6599V9.80005H100.19V8.38989H96.0199V6.28003H100.19V4.52002L103.21 4.61987C103.43 4.61987 103.63 4.71997 103.63 4.96997C103.63 5.19997 103.43 5.31992 103.21 5.41992V6.28003H108.54V9.80005H110.52V11.8899H108.54V15.4099H103.21V16.77H108.69V18.8601H103.21V20.1599H110V22.3999H103.21V23.8799H100.19V22.3999H94.9099V20.1599H100.19V18.8601H96.0199V16.77H100.19V15.4099V15.3999ZM103.21 8.38989V9.80005H105.67V8.38989H103.21ZM103.21 11.8799V13.3101H105.67V11.8799H103.21Z" fill="white"/>
<path d="M122.239 8.67017V11.0103H112.359V8.67017H122.239ZM121.479 18.9202V27.2402H118.639V26.3103H116.049V27.5403H113.179V18.9202H121.469H121.479ZM120.899 5.12012V7.53027H113.389V5.12012H120.899ZM120.899 12.1301V14.3203H113.389V12.1301H120.899ZM120.899 15.5503V17.7402H113.389V15.5503H120.899ZM116.049 21.2803V23.7202H118.639V21.2803H116.049ZM125.599 18.1401H122.579V15.4802H133.409L134.489 16.7603C133.709 18.6403 132.729 20.6001 130.869 22.8701C133.659 24.6001 135.289 24.9604 136.099 25.1104C135.239 25.9604 134.739 26.6703 134.289 27.6003C131.779 26.8003 129.799 25.6702 128.709 24.9402C126.949 26.3002 125.419 27.1003 123.479 27.8003C123.029 26.9003 121.969 25.6403 121.499 25.2603C122.179 25.0803 124.259 24.6103 126.479 23.0203C124.639 21.0803 124.039 19.9003 123.769 19.3503L125.599 18.1401ZM132.059 5.15015V11.0603C132.059 11.3403 132.209 11.5603 132.509 11.5603H133.009C133.759 11.5603 133.869 10.1303 133.939 9.35034C135.049 10.2003 135.819 10.4003 136.229 10.5103C135.729 13.2003 135.229 14.2002 133.719 14.2002H131.329C129.469 14.2002 129.169 12.7403 129.169 11.8103V7.74023H126.829C126.729 10.3302 126.629 12.8702 124.389 15.2502C123.839 14.7502 122.809 14.0202 121.719 13.7402C123.809 11.9802 123.809 9.54035 123.809 7.86035V5.15015H132.049H132.059ZM126.259 18.1401C127.009 19.4501 127.869 20.3804 128.649 21.1104C129.349 20.3304 130.079 19.4001 130.659 18.1401H126.259Z" fill="white"/>
<path d="M155.44 27.6699H152.55V20.1499C150.54 23.7199 148.38 25.63 147.93 25.98C147.05 25.13 146.42 24.72 145.44 24.3C150.04 20.63 151.62 17.16 151.77 16.78H147.5V14.1399H152.55V11.45H149.63C148.88 12.98 148.8 13.1599 148.5 13.6599C147.47 12.8099 146.24 12.6501 145.88 12.6101C146.16 12.2301 146.26 12.1099 146.38 11.8999H143.97V12.48C145.05 14.97 146.74 16.4499 147.51 17.1299C146.86 17.6299 146.4 18.4299 145.88 19.4199C145.05 18.6399 144.6 17.99 143.97 17.03V27.6599H141.23V18.4099C140.53 20.1399 139.9 21.4499 138.92 22.9299C138.19 21.0699 137.39 20.52 136.99 20.24C139.38 17.48 140.73 13.2799 141.11 11.8999H137.77V9.15991H141.24V4.61011L143.93 4.68994C144.21 4.68994 144.51 4.82004 144.51 5.04004C144.51 5.22004 144.41 5.29004 143.98 5.54004V9.15991H146.52V11.72C148.13 9.25997 148.61 7.20006 148.81 5.81006L151.3 6.52002C151.63 6.62002 151.76 6.64007 151.76 6.82007C151.76 7.00007 151.51 7.11995 151.26 7.19995C151.16 7.59995 151.08 7.88008 150.76 8.83008H152.57V4.56006L155.51 4.65991C155.89 4.67991 156.04 4.72996 156.04 4.95996C156.04 5.18996 155.97 5.23994 155.46 5.43994V8.83008H160.34V11.45H155.46V14.1399H160.79V16.78H156.27C157.17 18.62 158.81 21.1799 161.77 23.1899C161.04 23.8199 160.49 24.45 159.89 25.73C158.53 24.68 156.82 22.6901 155.47 20.0801V27.6699H155.44Z" fill="white"/>
<path d="M170.7 23.3901C172.53 23.0901 174.19 22.7101 175.55 22.3901C175.27 23.2501 175.2 24.4002 175.22 25.1602C171.5 26.1402 168.21 26.6902 164.26 27.2002C164.16 27.4802 164.04 27.8303 163.73 27.8303C163.51 27.8303 163.38 27.5301 163.35 27.3801L162.7 24.4402C165.19 24.2102 166.47 24.0402 167.37 23.9102V18.1301H163.33V15.3701H174.41V18.1301H170.69V23.4102L170.7 23.3901ZM180.25 4.49023C181.08 4.97023 182.71 5.95025 184.2 7.26025C183.87 7.59025 183.14 8.62031 182.67 9.32031H185.84V12.2603H177.37C177.59 13.6903 178.37 18.3701 181.42 22.6201C181.59 22.8701 182.2 23.7302 182.63 23.7302C183.06 23.7302 183.28 23.0502 183.46 22.4702C183.56 22.1902 183.86 20.9102 183.94 20.6602C184.37 21.1402 185.35 22.1202 186.48 22.6702C185.83 25.6402 184.85 27.4202 183.08 27.4202C179.97 27.4202 175.92 21.3103 174.44 12.2703H162.88V9.33032H174.03C173.96 8.78032 173.68 6.34035 173.71 4.61035L177.03 4.84033C177.18 4.84033 177.51 4.91017 177.51 5.17017C177.51 5.50017 177.13 5.65024 176.88 5.75024C176.86 6.45024 176.83 7.51033 177 9.34033H181.9C181.2 8.66033 180.14 7.76018 178.51 6.68018L180.27 4.52026L180.25 4.49023Z" fill="white"/>
<path d="M205.93 15.25H193.17V13.04C191.74 13.95 190.55 14.5 189.9 14.8C189.72 14.52 188.85 13.27 187.56 12.29C191.1 11.16 196.28 7.52 198.01 4.25L201.65 4.78003C201.88 4.81003 202.03 4.96011 202.03 5.11011C202.03 5.34011 201.75 5.40999 201.45 5.48999C202.91 7.62999 207.88 10.84 211.65 11.95C210.6 12.63 209.64 14.4601 209.57 14.5901C207.99 13.9601 206.63 13.18 205.92 12.78V15.27L205.93 15.25ZM189.3 24C190.1 23.95 192.84 23.78 193.17 23.78C194.4 21.64 195.1 19.93 195.26 19.51H189.3V16.72H210.03V19.51H204.13C207.15 22.13 208.5 23.91 209.88 25.74C208.7 26.54 207.9 27.45 207.44 27.95C206.28 26.17 206.16 25.9901 205.61 25.3101C204.08 25.5301 200.48 25.9899 198.87 26.1599C197.61 26.3099 191.98 26.89 190.85 27.02C190.7 27.4 190.57 27.6699 190.27 27.6699C190.12 27.6699 189.99 27.5201 189.92 27.0901L189.29 24H189.3ZM205.43 12.47C202.61 10.76 201.44 9.57989 199.47 7.63989C197.51 9.62989 196.35 10.81 194.02 12.47H205.43ZM203.22 19.51H199.32C199.37 19.59 199.39 19.6299 199.39 19.6899C199.39 19.9699 198.86 20.0401 198.66 20.0701C198.28 20.9301 197.25 22.73 196.78 23.51C199.95 23.23 200.3 23.2099 203.41 22.8799C202.98 22.3999 202.4 21.9 201.4 21.05L203.21 19.52L203.22 19.51Z" fill="white"/>
<path d="M219.94 27.5698H216.82V20.3298C215.79 21.2598 214.96 21.8896 214.33 22.3696C213.7 20.9096 212.77 20.1598 212.34 19.7798C215.03 18.1998 218.42 14.9497 219.5 12.4697H213.34V9.57983H216.81V4.72974L219.9 4.82983C220.25 4.82983 220.38 5.04969 220.38 5.17969C220.38 5.32969 220.26 5.42986 219.93 5.60986V9.57983H222.52L223.9 10.8896C222.47 13.7496 222.19 14.2296 221.13 15.6396C222.49 17.1696 224.22 18.2998 224.97 18.8098C224.34 19.3398 223.41 20.3697 223.01 21.1497C221.53 20.0997 220.82 19.3897 219.92 18.4397V27.5898L219.94 27.5698ZM223.48 15.1099V12.0698H227.9V4.67969L231.29 4.82983C231.49 4.82983 231.67 4.92986 231.67 5.10986C231.67 5.35986 231.49 5.40977 231.14 5.50977V12.0698H235.59V15.1099H231.14V23.8599H236.14V26.7498H221.89V23.8599H227.9V15.1099H223.48Z" fill="white"/>
<path d="M0 16.0901C0 24.9401 7.21 32.1599 16.08 32.1599C24.95 32.1599 32.15 24.9401 32.15 16.0901C32.15 7.24009 24.94 0 16.08 0C7.22 0 0 7.22009 0 16.0901ZM2.23 16.0901C2.23 8.44009 8.44 2.22998 16.08 2.22998C23.72 2.22998 29.93 8.44009 29.93 16.0901C29.93 23.7401 23.71 29.9399 16.08 29.9399C8.45 29.9399 2.23 23.7201 2.23 16.0901Z" fill="white"/>
<path d="M26.0095 7.42993C26.0095 7.42993 26.0995 7.34006 26.1195 7.31006H6.43953L9.02953 10.3501H19.1595L16.0595 13.77L13.5795 11.01H9.55953L13.9295 16.1199L6.01953 24.8401H10.6195C12.6595 22.5201 14.4795 20.4599 16.0895 18.6399L21.3895 24.8401H25.9895L18.2395 16.2C23.5895 10.14 25.9195 7.51001 25.9195 7.51001L25.9995 7.42993H26.0095Z" fill="white"/>
<path d="M20.5996 24.8604H11.5596L14.0496 21.9902H18.1296L20.5996 24.8604Z" fill="white"/>
</svg>
