<svg width="237" height="33" viewBox="0 0 237 33" fill="none" xmlns="http://www.w3.org/2000/svg">
<path d="M47.2089 4.6001L50.4288 4.7801C50.5588 4.7801 50.9288 4.8001 50.9288 5.0601C50.9288 5.3201 50.6288 5.4101 50.2988 5.4901V6.9201H60.1489V9.6301H37.2988V6.9201H47.1989V4.6101L47.2089 4.6001ZM45.5288 20.6101C45.7288 20.7401 45.9088 20.8401 45.9088 21.0401C45.9088 21.3201 45.4889 21.3201 45.2289 21.2901C44.7289 22.1201 43.1188 24.7301 40.2788 27.0401C39.1188 26.1101 38.6989 25.7601 37.5089 25.2601C39.8489 23.3501 41.4588 21.5901 42.8088 19.1001L45.5189 20.6101H45.5288ZM50.3088 24.8101C50.3088 26.8901 49.8589 27.7701 45.4889 27.6201C45.3889 26.6701 44.9089 25.4101 44.3289 24.4301C45.2389 24.5601 45.7589 24.6101 46.2089 24.6101C47.0389 24.6101 47.2089 24.3301 47.2089 23.7601V18.6301H40.2988V10.9901H57.1688V18.6301H50.3088V24.8101ZM43.3989 13.5201V16.0801H54.1289V13.5201H43.3989ZM54.4288 19.2501C55.9588 20.5301 58.1488 22.8701 59.4088 24.9801C58.0988 25.8101 57.9489 25.9101 56.6489 26.9901C55.6189 25.0501 53.7289 22.4701 51.8689 20.8601L54.4288 19.2501Z" fill="black"/>
<path d="M63.5686 10.5801C64.2786 10.9601 66.0586 12.0101 67.3186 13.0901C66.5386 14.1201 66.1586 14.7201 65.6086 15.6301C64.6086 14.7001 63.0187 13.6401 61.8887 13.0401L63.5686 10.5801ZM61.9086 25.4601C63.5186 23.4301 64.8486 21.1901 66.5286 17.3201C66.8586 17.8001 67.5886 18.8001 68.5686 19.5101C67.8686 21.1201 66.0786 24.5901 64.6786 26.5501C64.7286 26.6801 64.8586 27.0501 64.8586 27.1301C64.8586 27.3101 64.7787 27.4601 64.6287 27.4601C64.4487 27.4601 64.2786 27.3101 64.1986 27.2601L61.9086 25.4801V25.4601ZM65.7986 4.32007C67.0586 4.92007 68.9187 6.38007 69.3887 6.86007C68.7587 7.59007 68.1586 8.39007 67.6086 9.22007C66.4986 8.19007 65.3486 7.33007 64.0386 6.58007L65.7986 4.32007ZM84.4686 15.5801C84.8186 15.7301 84.9486 15.7801 84.9486 15.9301C84.9486 16.2101 84.6487 16.2301 84.1187 16.3101C83.3687 17.7901 82.2586 19.9801 81.8286 20.7801L84.2386 20.3001C84.7686 21.8801 85.4487 25.2501 85.5187 27.0101C84.7187 27.0601 83.9786 27.1901 82.9586 27.5101C82.9086 26.8301 82.8586 26.3301 82.7386 25.5501C81.9286 25.7301 78.4687 26.3501 77.7587 26.4801C77.5887 26.9101 77.4586 27.1101 77.2286 27.1101C76.9986 27.1101 76.8986 26.8601 76.8286 26.5601L76.0187 23.7901C76.3987 23.7701 76.4987 23.7701 77.4987 23.6901C78.0987 22.6801 78.1787 22.5601 79.1387 20.8801C79.0887 20.8001 77.6486 18.7901 75.7986 16.9301L76.4286 16.0001C76.2786 16.0701 76.1486 16.1001 75.8286 16.1001C74.8486 18.1901 73.7386 20.3201 73.5686 20.6501L75.4286 20.3701C75.7286 21.7301 76.3386 26.3301 76.2286 27.4601C75.3786 27.4301 74.5187 27.6401 73.7687 27.8901C73.7887 26.9901 73.7686 26.4801 73.7386 26.0301C72.4086 26.2801 71.0786 26.5101 68.6886 26.9101C68.4886 27.4601 68.4086 27.6101 68.1586 27.6101C68.0086 27.6101 67.9287 27.4301 67.8787 27.2601L67.1786 24.0701C68.1386 24.0701 68.5086 24.0701 68.9586 24.0201C69.3386 23.3901 69.4887 23.0901 70.8887 20.5001C70.7687 20.3201 68.5487 17.7101 67.1487 16.4801L68.8586 14.1701C69.1086 14.4001 69.2586 14.5201 69.7086 14.9701C70.2386 13.7101 70.5686 12.7101 70.9386 11.3001H68.2786V8.64007H72.7086C71.4786 6.71007 71.0486 6.20007 70.7186 5.83007L73.2786 4.32007C74.1086 5.38007 75.0586 6.93007 75.5386 7.89007C75.3386 8.01007 74.4286 8.54007 74.2386 8.64007H77.0986C77.6786 7.89007 79.1386 5.65007 79.7086 4.37007L82.3987 5.65007C82.6987 5.80007 82.8486 5.88007 82.8486 6.08007C82.8486 6.43007 82.4487 6.41007 81.9987 6.38007C80.9687 8.04007 80.8386 8.21007 80.5386 8.64007H85.1387V11.3001H79.9586L81.9987 12.1601C82.3787 12.3101 82.4786 12.3901 82.4786 12.5401C82.4786 12.7901 82.2786 12.8201 81.6986 12.9701C81.2486 14.2301 80.0686 16.6901 79.7186 17.3901C79.8386 17.5401 79.9987 17.7201 80.4987 18.3701C80.6787 18.0401 81.4986 16.4601 82.1786 14.6001L84.4686 15.5801ZM75.8987 15.3301C76.3487 15.5301 76.4786 15.6301 76.5486 15.8101L77.3086 14.6801C77.5886 14.9301 77.7386 15.0801 77.9586 15.3101C78.3086 14.6101 79.1087 12.7501 79.5187 11.3101H71.7487L73.6586 11.9901C73.8586 12.0601 74.0586 12.1701 74.0586 12.3901C74.0586 12.6701 73.8286 12.7201 73.2986 12.7701C72.8986 13.8301 72.4486 15.0101 71.4686 16.8901C71.6986 17.1901 71.9187 17.4401 72.2687 17.8701C73.2787 15.6801 73.3986 15.4301 73.8286 14.3501L75.8887 15.3301H75.8987ZM73.5386 23.6201C73.4186 22.5101 73.3086 21.8901 73.2086 21.3301C72.6086 22.4601 72.3586 22.8901 71.7986 23.7901C72.5286 23.7101 72.9786 23.6701 73.5286 23.6101L73.5386 23.6201ZM82.2786 23.1401C82.0986 22.4401 81.9086 21.5301 81.7286 20.9301C81.1486 22.0401 80.9486 22.3601 80.3486 23.3701L82.2786 23.1401Z" fill="black"/>
<path d="M100.138 27.21C99.8381 27.21 94.938 27.21 92.118 24.75C91.038 26.36 89.958 27.34 89.358 27.89C88.478 26.99 87.778 26.58 86.918 26.23C87.748 25.55 88.9581 24.47 90.1381 22.51C88.7281 20.43 88.248 18.52 87.978 17.18L90.468 16.55C90.848 18.26 91.168 19.04 91.448 19.67C92.048 17.73 92.128 16.33 92.178 15.55H90.5181C90.0381 16.18 89.8681 16.38 89.6381 16.68C88.9881 16.08 88.178 15.7 86.998 15.35C88.558 13.36 89.638 11.3 90.698 8.87001H87.558V5.95001H93.718L94.8981 7.38001C93.6581 10.42 92.4581 12.51 92.2581 12.81H95.098C95.048 14.27 94.9481 18.81 93.3881 22.36C95.4981 24.37 97.488 24.52 100.698 24.52C103.738 24.52 108.838 24.52 111.228 24.04C110.348 25.4 110.148 26.91 110.118 27.21H100.138ZM100.188 15.4H96.0181V13.31H100.188V11.88H94.658V9.79001H100.188V8.38001H96.0181V6.27001H100.188V4.51001L103.208 4.61001C103.428 4.61001 103.628 4.71001 103.628 4.96001C103.628 5.19001 103.428 5.31001 103.208 5.41001V6.27001H108.538V9.79001H110.528V11.88H108.538V15.4H103.208V16.76H108.688V18.85H103.208V20.15H109.998V22.39H103.208V23.87H100.188V22.39H94.908V20.15H100.188V18.85H96.0181V16.76H100.188V15.4ZM103.208 8.39001V9.80001H105.668V8.39001H103.208ZM103.208 11.88V13.31H105.668V11.88H103.208Z" fill="black"/>
<path d="M122.237 8.67012V11.0101H112.357V8.67012H122.237ZM121.487 18.9201V27.2401H118.647V26.3101H116.057V27.5401H113.187V18.9201H121.477H121.487ZM120.907 5.12012V7.53012H113.397V5.12012H120.907ZM120.907 12.1301V14.3201H113.397V12.1301H120.907ZM120.907 15.5501V17.7401H113.397V15.5501H120.907ZM116.057 21.2801V23.7201H118.647V21.2801H116.057ZM125.607 18.1401H122.587V15.4801H133.417L134.497 16.7601C133.717 18.6401 132.737 20.6001 130.877 22.8701C133.667 24.6001 135.297 24.9601 136.107 25.1101C135.257 25.9601 134.747 26.6701 134.297 27.6001C131.787 26.8001 129.797 25.6701 128.717 24.9401C126.957 26.3001 125.427 27.1001 123.487 27.8001C123.037 26.9001 121.987 25.6401 121.507 25.2601C122.187 25.0801 124.267 24.6101 126.487 23.0201C124.657 21.0801 124.047 19.9001 123.777 19.3501L125.607 18.1401ZM132.067 5.15012V11.0601C132.067 11.3401 132.217 11.5601 132.517 11.5601H133.017C133.767 11.5601 133.877 10.1301 133.947 9.35012C135.057 10.2001 135.827 10.4001 136.237 10.5101C135.737 13.2001 135.237 14.2001 133.727 14.2001H131.337C129.477 14.2001 129.177 12.7401 129.177 11.8101V7.74012H126.837C126.737 10.3301 126.637 12.8701 124.397 15.2501C123.847 14.7501 122.817 14.0201 121.737 13.7401C123.827 11.9801 123.827 9.54012 123.827 7.86012V5.15012H132.067ZM126.267 18.1401C127.017 19.4501 127.877 20.3801 128.657 21.1101C129.357 20.3301 130.087 19.4001 130.667 18.1401H126.267Z" fill="black"/>
<path d="M155.437 27.6701H152.547V20.1501C150.537 23.7201 148.377 25.63 147.927 25.98C147.047 25.13 146.417 24.72 145.437 24.3C150.037 20.63 151.617 17.16 151.767 16.78H147.497V14.14H152.547V11.4501H149.627C148.877 12.9801 148.797 13.16 148.497 13.66C147.467 12.81 146.237 12.65 145.877 12.6C146.157 12.22 146.257 12.1001 146.377 11.9001H143.967V12.48C145.047 14.97 146.737 16.4501 147.517 17.1301C146.867 17.6301 146.417 18.44 145.887 19.42C145.057 18.64 144.607 17.99 143.977 17.03V27.66H141.237V18.41C140.537 20.14 139.907 21.45 138.927 22.93C138.197 21.07 137.397 20.5201 136.987 20.2401C139.377 17.4801 140.737 13.2801 141.107 11.9001H137.767V9.16005H141.237V4.61005L143.927 4.69005C144.207 4.69005 144.507 4.82005 144.507 5.04005C144.507 5.22005 144.407 5.29005 143.977 5.54005V9.16005H146.517V11.7201C148.127 9.26005 148.607 7.20005 148.807 5.81005L151.297 6.51005C151.627 6.61005 151.747 6.63005 151.747 6.81005C151.747 6.99005 151.497 7.11005 151.247 7.19005C151.147 7.59005 151.067 7.87005 150.747 8.82005H152.557V4.55005L155.497 4.65005C155.877 4.67005 156.027 4.72005 156.027 4.95005C156.027 5.18005 155.947 5.23005 155.447 5.43005V8.82005H160.317V11.43H155.447V14.12H160.777V16.76H156.257C157.167 18.6 158.797 21.16 161.757 23.17C161.027 23.8 160.477 24.4301 159.877 25.7101C158.517 24.6601 156.807 22.6701 155.457 20.0601V27.65L155.437 27.6701Z" fill="black"/>
<path d="M170.697 23.39C172.537 23.09 174.187 22.71 175.547 22.39C175.267 23.25 175.197 24.4 175.217 25.16C171.497 26.14 168.207 26.69 164.257 27.2C164.157 27.48 164.037 27.83 163.727 27.83C163.497 27.83 163.377 27.53 163.347 27.38L162.687 24.44C165.177 24.21 166.457 24.04 167.357 23.91V18.13H163.317V15.37H174.397V18.13H170.677V23.41L170.697 23.39ZM180.247 4.48999C181.077 4.96999 182.707 5.94999 184.197 7.24999C183.867 7.57999 183.136 8.60999 182.656 9.30999H185.827V12.25H177.357C177.587 13.68 178.356 18.36 181.406 22.6C181.586 22.85 182.187 23.71 182.617 23.71C183.047 23.71 183.267 23.03 183.447 22.45C183.547 22.17 183.847 20.89 183.927 20.64C184.357 21.12 185.337 22.1 186.467 22.65C185.817 25.62 184.837 27.4 183.067 27.4C179.957 27.4 175.907 21.29 174.427 12.25H162.867V9.30999H174.026C173.956 8.75999 173.677 6.31999 173.697 4.58999L177.017 4.81999C177.167 4.81999 177.497 4.88999 177.497 5.14999C177.497 5.47999 177.117 5.62999 176.867 5.72999C176.847 6.42999 176.817 7.48999 176.987 9.31999H181.887C181.187 8.63999 180.127 7.73999 178.497 6.65999L180.257 4.49999L180.247 4.48999Z" fill="black"/>
<path d="M205.927 15.25H193.167V13.04C191.737 13.95 190.547 14.5 189.897 14.8C189.717 14.52 188.847 13.27 187.557 12.29C191.097 11.16 196.277 7.52 198.007 4.25L201.647 4.78C201.877 4.8 202.027 4.96 202.027 5.11C202.027 5.34 201.747 5.41 201.447 5.49C202.907 7.63 207.877 10.84 211.647 11.95C210.597 12.63 209.637 14.46 209.567 14.59C207.987 13.96 206.627 13.18 205.917 12.78V15.27L205.927 15.25ZM189.287 24C190.087 23.95 192.827 23.77 193.157 23.77C194.387 21.63 195.087 19.92 195.247 19.5H189.287V16.71H210.017V19.5H204.107C207.127 22.11 208.477 23.9 209.867 25.73C208.687 26.53 207.877 27.44 207.427 27.94C206.267 26.16 206.147 25.98 205.597 25.3C204.057 25.53 200.467 25.98 198.857 26.15C197.597 26.3 191.967 26.88 190.837 27C190.687 27.38 190.557 27.65 190.257 27.65C190.107 27.65 189.977 27.5 189.907 27.07L189.277 23.98L189.287 24ZM205.417 12.47C202.597 10.76 201.427 9.58 199.457 7.64C197.497 9.63 196.337 10.81 194.007 12.47H205.417ZM203.207 19.51H199.307C199.357 19.59 199.387 19.63 199.387 19.69C199.387 19.97 198.857 20.04 198.657 20.07C198.277 20.93 197.247 22.74 196.777 23.51C199.947 23.23 200.297 23.21 203.407 22.88C202.977 22.4 202.407 21.9 201.397 21.05L203.207 19.52V19.51Z" fill="black"/>
<path d="M219.936 27.5699H216.816V20.3299C215.786 21.2599 214.956 21.8899 214.326 22.3699C213.696 20.9099 212.766 20.1599 212.336 19.7799C215.026 18.1999 218.416 14.9499 219.496 12.4699H213.336V9.57992H216.806V4.72992L219.896 4.82992C220.246 4.82992 220.376 5.05992 220.376 5.17992C220.376 5.32992 220.256 5.42992 219.926 5.60992V9.57992H222.516L223.896 10.8899C222.466 13.7499 222.186 14.2299 221.126 15.6399C222.486 17.1699 224.216 18.2999 224.976 18.8099C224.346 19.3399 223.416 20.3699 223.016 21.1499C221.536 20.0999 220.826 19.3899 219.926 18.4399V27.5899L219.936 27.5699ZM223.476 15.0999V12.0599H227.896V4.66992L231.286 4.81992C231.486 4.81992 231.666 4.91992 231.666 5.08992C231.666 5.33992 231.486 5.38993 231.136 5.48993V12.0499H235.586V15.0899H231.136V23.8399H236.136V26.7299H221.886V23.8399H227.896V15.0899H223.476V15.0999Z" fill="black"/>
<path d="M30.2596 16.0799C30.2596 23.9199 23.9096 30.2699 16.0796 30.2699C8.24959 30.2699 1.88965 23.9199 1.88965 16.0799C1.88965 8.23989 8.23959 1.88989 16.0796 1.88989C23.9196 1.88989 30.2596 8.23989 30.2596 16.0799Z" fill="white"/>
<path d="M0 16.09C0 24.94 7.20996 32.16 16.08 32.16C24.95 32.16 32.15 24.94 32.15 16.09C32.15 7.24 24.94 0 16.08 0C7.21996 0 0 7.22 0 16.09ZM2.22998 16.09C2.22998 8.44 8.44996 2.23 16.08 2.23C23.71 2.23 29.9299 8.44 29.9299 16.09C29.9299 23.74 23.71 29.93 16.08 29.93C8.44996 29.93 2.22998 23.71 2.22998 16.09Z" fill="black"/>
<path d="M26.0201 7.43006C26.0201 7.43006 26.1001 7.34006 26.1301 7.31006H6.45007L9.04004 10.3501H19.1801L16.0801 13.7701L13.6001 11.0101H9.58008L13.9501 16.1201L6.04004 24.8401H10.6401C12.6801 22.5201 14.5001 20.4601 16.1101 18.6401L21.41 24.8401H26.0101L18.2601 16.2001C23.6101 10.1401 25.9401 7.51006 25.9401 7.51006L26.03 7.43006H26.0201Z" fill="#C7161E"/>
<path d="M20.6006 24.86H11.5605L14.0505 21.99H18.1306L20.6006 24.86Z" fill="#C7161E"/>
</svg>
